<?xml version="1.0" encoding="utf-8"?>
<!-- Generator: Adobe Illustrator 15.1.0, SVG Export Plug-In . SVG Version: 6.00 Build 0)  -->
<!DOCTYPE svg PUBLIC "-//W3C//DTD SVG 1.0//EN" "http://www.w3.org/TR/2001/REC-SVG-20010904/DTD/svg10.dtd">
<svg version="1.0" id="Layer_1" xmlns="http://www.w3.org/2000/svg" xmlns:xlink="http://www.w3.org/1999/xlink" x="0px" y="0px"
	 width="117.973px" height="50.375px" viewBox="0 0 117.973 50.375" enable-background="new 0 0 117.973 50.375"
	 xml:space="preserve">
<g>
	<path d="M59.704,33.084h8.423V35H57.348V17.227h2.356V33.084z"/>
	<path d="M83.678,26.688c0,1.741-0.293,3.261-0.879,4.559c-0.586,1.299-1.416,2.289-2.49,2.973s-2.327,1.025-3.76,1.025
		c-1.399,0-2.641-0.344-3.723-1.031s-1.923-1.668-2.521-2.942c-0.599-1.273-0.905-2.748-0.922-4.425v-1.282
		c0-1.709,0.297-3.218,0.892-4.529c0.594-1.31,1.434-2.313,2.521-3.009c1.086-0.696,2.329-1.044,3.729-1.044
		c1.424,0,2.679,0.344,3.766,1.031c1.086,0.688,1.922,1.685,2.508,2.991c0.586,1.306,0.879,2.826,0.879,4.559V26.688z M81.347,25.54
		c0-2.107-0.423-3.725-1.27-4.852c-0.847-1.127-2.03-1.691-3.552-1.691c-1.481,0-2.647,0.563-3.498,1.691
		c-0.851,1.127-1.287,2.691-1.313,4.693v1.307c0,2.043,0.43,3.647,1.288,4.815s2.041,1.751,3.546,1.751
		c1.514,0,2.686-0.551,3.516-1.653s1.258-2.684,1.282-4.743V25.54z"/>
	<path d="M100.316,32.668c-0.603,0.863-1.442,1.508-2.521,1.936c-1.079,0.427-2.334,0.641-3.767,0.641
		c-1.448,0-2.734-0.34-3.857-1.02c-1.123-0.679-1.991-1.646-2.605-2.898c-0.615-1.254-0.93-2.706-0.946-4.358v-1.55
		c0-2.677,0.624-4.752,1.874-6.226c1.249-1.473,3.005-2.209,5.268-2.209c1.855,0,3.349,0.474,4.479,1.422
		c1.131,0.948,1.823,2.293,2.075,4.035h-2.344c-0.439-2.36-1.839-3.54-4.199-3.54c-1.57,0-2.761,0.552-3.57,1.656
		c-0.811,1.104-1.219,2.702-1.227,4.795v1.454c0,1.995,0.455,3.581,1.367,4.759c0.911,1.177,2.144,1.766,3.698,1.766
		c0.879,0,1.647-0.098,2.308-0.293c0.658-0.194,1.204-0.523,1.635-0.986v-3.982h-4.113V26.15h6.445V32.668z"/>
	<path d="M117.895,26.688c0,1.741-0.293,3.261-0.879,4.559c-0.586,1.299-1.416,2.289-2.49,2.973s-2.327,1.025-3.76,1.025
		c-1.399,0-2.641-0.344-3.723-1.031s-1.923-1.668-2.521-2.942c-0.599-1.273-0.905-2.748-0.922-4.425v-1.282
		c0-1.709,0.297-3.218,0.892-4.529c0.594-1.31,1.434-2.313,2.521-3.009c1.086-0.696,2.329-1.044,3.729-1.044
		c1.424,0,2.679,0.344,3.766,1.031c1.086,0.688,1.922,1.685,2.508,2.991c0.586,1.306,0.879,2.826,0.879,4.559V26.688z
		 M115.563,25.54c0-2.107-0.423-3.725-1.27-4.852c-0.847-1.127-2.03-1.691-3.552-1.691c-1.481,0-2.647,0.563-3.498,1.691
		c-0.851,1.127-1.287,2.691-1.313,4.693v1.307c0,2.043,0.43,3.647,1.288,4.815s2.041,1.751,3.546,1.751
		c1.514,0,2.686-0.551,3.516-1.653s1.258-2.684,1.282-4.743V25.54z"/>
</g>
<polygon fill="#212221" points="23.258,25.197 11.833,36.588 0.426,25.179 11.851,13.789 "/>
<polygon fill="#47797B" points="36.822,38.744 25.398,50.135 13.991,38.727 25.416,27.336 "/>
<polygon fill="#212221" points="50.388,25.194 38.963,36.586 27.556,25.178 38.981,13.788 "/>
<polygon fill="#47797B" points="36.822,11.648 25.398,23.04 13.991,11.631 25.417,0.24 "/>
</svg>
