<?xml version="1.0" encoding="utf-8"?>
<!-- Generator: Adobe Illustrator 15.1.0, SVG Export Plug-In . SVG Version: 6.00 Build 0)  -->
<!DOCTYPE svg PUBLIC "-//W3C//DTD SVG 1.0//EN" "http://www.w3.org/TR/2001/REC-SVG-20010904/DTD/svg10.dtd">
<svg version="1.0" id="Layer_1" xmlns="http://www.w3.org/2000/svg" xmlns:xlink="http://www.w3.org/1999/xlink" x="0px" y="0px"
	 width="150.034px" height="172.039px" viewBox="0 0 150.034 172.039" enable-background="new 0 0 150.034 172.039"
	 xml:space="preserve">
<g>
	<path fill-rule="evenodd" clip-rule="evenodd" fill="#FFFFFF" d="M74.017,0c0.667,0,1.334,0,2.001,0
		c24.393,14.283,48.448,28.902,74.017,42.01c0,29.34,0,58.68,0,88.02c-25.568,13.107-49.624,27.728-74.017,42.01
		c-0.667,0-1.334,0-2.001,0C49.624,157.757,25.568,143.137,0,130.029c0-29.34,0-58.68,0-88.02C25.568,28.902,49.624,14.283,74.017,0
		z M75.017,17.004c-20.334,11.007-39.68,23.001-60.014,34.008c0,23.339,0,46.677,0,70.016c19.877,11.13,39.744,22.271,59.013,34.008
		c21.397-10.276,40.226-23.123,61.015-34.008c0-23.339,0-46.677,0-70.016C114.697,40.005,95.351,28.011,75.017,17.004z"/>
	<path fill-rule="evenodd" clip-rule="evenodd" fill="#DEDDDD" d="M135.031,51.012c0,23.339,0,46.677,0,70.016
		c-20.789,10.885-39.617,23.731-61.015,34.008c-19.269-11.737-39.136-22.878-59.013-34.008c0-23.339,0-46.677,0-70.016
		c20.334-11.007,39.68-23.001,60.014-34.008C95.351,28.011,114.697,40.005,135.031,51.012z"/>
</g>
</svg>
